<?xml version="1.0" encoding="utf-8"?>
<!-- Generator: Adobe Illustrator 24.0.3, SVG Export Plug-In . SVG Version: 6.00 Build 0)  -->
<svg version="1.1" id="Layer_1" xmlns="http://www.w3.org/2000/svg" xmlns:xlink="http://www.w3.org/1999/xlink" x="0px" y="0px"
	 viewBox="0 0 413 533" style="enable-background:new 0 0 413 533;" xml:space="preserve">
<style type="text/css">
	.st0{fill:#55C9BE;}
	.st1{fill:#2E3192;}
	.st2{fill:#662D91;}
</style>
<path class="st0" d="M55.56,533H19.44C8.7,533,0,524.3,0,513.56V294.44C0,283.7,8.7,275,19.44,275h36.12
	C66.3,275,75,283.7,75,294.44v219.12C75,524.3,66.3,533,55.56,533z"/>
<path class="st1" d="M204.56,533h-36.12c-10.74,0-19.44-8.7-19.44-19.44V211.44c0-10.74,8.7-19.44,19.44-19.44h36.12
	c10.74,0,19.44,8.7,19.44,19.44v302.12C224,524.3,215.3,533,204.56,533z"/>
<path class="st2" d="M320.13,8.1l-57.44,81.23c-9.11,12.88,0.1,30.67,15.87,30.67h0c10.74,0,19.44,8.7,19.44,19.44v374.12
	c0,10.74,8.7,19.44,19.44,19.44h36.12c10.74,0,19.44-8.7,19.44-19.44V139.44c0-10.74,8.7-19.44,19.44-19.44h1
	c15.77,0,24.98-17.79,15.87-30.67L351.87,8.1C344.13-2.86,327.87-2.86,320.13,8.1z"/>
</svg>
